<?xml version="1.0" standalone="no"?>
<!DOCTYPE svg PUBLIC "-//W3C//DTD SVG 20010904//EN"
 "http://www.w3.org/TR/2001/REC-SVG-20010904/DTD/svg10.dtd">
<svg version="1.0" xmlns="http://www.w3.org/2000/svg"
 width="1338.000000pt" height="1338.000000pt" viewBox="0 0 1338.000000 1338.000000"
 preserveAspectRatio="xMidYMid meet">
<metadata>
Created by potrace 1.11, written by Peter Selinger 2001-2013
</metadata>
<g transform="translate(0.000000,1338.000000) scale(0.100000,-0.100000)"
fill="#000000" stroke="none">
<path d="M6500 13129 c-394 -35 -767 -183 -1117 -443 -46 -33 -83 -63 -83 -66
0 -3 5 -12 10 -20 8 -12 14 -10 37 12 15 14 66 52 113 83 47 31 84 61 82 67
-1 5 1 7 6 4 5 -3 51 15 102 40 85 42 137 65 150 69 3 0 34 11 70 23 180 60
402 92 638 92 347 -1 646 -71 952 -225 500 -250 881 -701 1029 -1215 59 -208
66 -262 65 -535 0 -220 -3 -263 -22 -353 -146 -676 -605 -1213 -1261 -1473
-85 -34 -304 -97 -366 -105 -22 -3 -67 -10 -100 -15 -33 -5 -125 -12 -205 -16
-292 -12 -563 44 -837 173 -176 82 -274 146 -340 220 -69 78 -239 227 -349
306 -285 204 -589 337 -919 402 -190 37 -279 46 -475 46 -358 0 -698 -78
-1024 -234 -159 -76 -319 -173 -310 -188 5 -7 2 -8 -5 -4 -17 11 -183 -117
-310 -239 -463 -444 -730 -1048 -757 -1710 -7 -164 5 -329 37 -520 20 -122 30
-165 76 -315 81 -268 233 -548 415 -765 127 -152 408 -415 443 -415 13 0 41
18 35 23 -215 163 -381 348 -499 555 -140 245 -243 567 -281 882 -13 110 -13
365 1 488 56 513 296 1010 664 1377 441 441 1028 671 1655 652 318 -10 588
-73 877 -206 577 -264 1021 -758 1217 -1356 36 -111 79 -309 91 -421 6 -53 3
-68 -18 -110 -111 -219 -213 -557 -258 -849 -20 -130 -23 -189 -24 -435 0
-249 3 -304 23 -440 97 -639 377 -1199 828 -1655 483 -489 1118 -799 1829
-892 192 -25 633 -25 820 0 371 50 761 187 1062 373 142 88 193 127 225 171
30 41 54 93 43 93 -2 0 -34 -21 -72 -47 -306 -210 -688 -363 -1045 -420 -157
-25 -580 -25 -754 0 -1129 161 -2070 1009 -2354 2122 -88 345 -110 709 -65
1060 85 649 391 1243 872 1693 146 137 216 193 363 291 629 421 1329 572 2091
451 370 -59 704 -199 998 -420 124 -93 111 -87 127 -65 8 10 14 22 14 25 0 9
-205 160 -316 232 -284 186 -605 325 -914 398 -172 40 -288 57 -497 71 -166
12 -313 7 -563 -17 -66 -6 -271 -41 -294 -50 -33 -13 -15 13 37 51 73 55 248
226 311 305 202 248 326 493 402 790 122 474 60 1000 -168 1430 -61 115 -164
271 -237 360 -123 149 -378 379 -402 364 -8 -4 -9 -3 -5 4 15 24 -281 195
-478 277 -327 135 -728 196 -1086 164z m1488 -514 c28 -10 52 -21 52 -26 0 -5
8 -9 19 -9 28 0 93 -29 119 -53 12 -11 22 -18 22 -15 0 13 213 -204 267 -272
384 -484 506 -1098 349 -1755 -86 -359 -317 -707 -631 -954 -44 -34 -87 -68
-95 -75 -65 -52 -275 -164 -287 -152 -2 1 29 29 69 60 76 60 170 148 248 232
381 408 612 1096 550 1639 -51 447 -264 877 -624 1260 -36 39 -66 73 -66 78 0
4 -6 7 -14 7 -9 0 -13 8 -10 23 2 12 1 16 -2 9 -5 -10 -10 -10 -25 4 -21 19
-27 43 -6 26 6 -5 36 -18 65 -27z m-3923 -2490 c120 -17 316 -70 435 -117 324
-128 640 -359 888 -648 90 -106 97 -125 16 -51 -200 184 -460 342 -719 438
-264 98 -499 145 -810 162 -603 33 -1121 -129 -1590 -499 -149 -117 -416 -401
-518 -550 -9 -14 -42 -61 -72 -105 -31 -44 -61 -88 -68 -98 -35 -53 -37 -54
-31 -7 4 25 10 54 15 66 5 14 1 30 -11 49 -10 15 -16 34 -13 43 5 11 9 9 19
-9 12 -23 13 -23 20 -5 5 12 3 21 -4 24 -20 6 -15 32 20 92 5 8 15 30 23 48 9
18 36 65 61 104 25 39 48 78 52 87 3 8 11 22 18 31 7 8 29 35 48 58 20 24 36
48 36 52 0 18 312 325 376 370 335 238 593 353 959 430 93 19 316 47 420 53
113 6 321 -2 430 -18z m1705 -967 c176 -87 288 -129 442 -164 261 -59 590 -70
851 -28 20 3 37 2 37 -3 0 -4 -35 -31 -78 -59 -291 -193 -602 -508 -814 -824
-50 -74 -94 -136 -98 -138 -4 -2 -11 23 -14 55 -21 178 -94 460 -169 653 -60
156 -159 340 -260 488 -67 98 -71 105 -60 101 5 -2 78 -39 163 -81z m1340
-433 c0 -2 -40 -46 -90 -97 -49 -50 -92 -100 -96 -110 -3 -10 -9 -18 -14 -18
-6 0 -115 -126 -168 -195 -238 -311 -411 -621 -525 -941 -77 -215 -129 -448
-148 -657 -15 -160 -6 -533 15 -675 79 -525 298 -1075 589 -1477 119 -165 308
-370 450 -491 88 -74 276 -212 308 -226 26 -11 39 -28 23 -28 -10 0 -217 103
-279 139 -137 79 -348 228 -475 335 -85 72 -302 301 -373 394 -319 418 -475
843 -537 1471 -5 57 -10 187 -10 290 0 675 222 1301 639 1800 83 99 263 291
274 291 4 0 21 14 38 31 21 22 36 29 52 25 12 -3 16 -3 10 0 -22 10 -14 26 9
19 16 -6 20 -4 15 7 -4 11 1 14 18 10 25 -4 95 15 95 26 0 11 58 34 72 29 7
-2 24 4 37 14 13 11 30 19 37 19 8 0 14 5 14 10 0 6 5 10 10 10 6 0 10 -2 10
-5z m-5520 -134 c0 -5 -7 -11 -14 -14 -10 -4 -13 -1 -9 9 6 15 23 19 23 5z"/>
<path d="M6966 8653 c-11 -11 -6 -23 9 -23 8 0 15 4 15 9 0 13 -16 22 -24 14z"/>
<path d="M6314 12889 c-579 -45 -1092 -444 -1275 -991 -96 -287 -97 -609 -3
-895 75 -226 193 -414 373 -594 229 -228 474 -361 796 -431 82 -18 434 -17
543 1 60 10 82 17 82 28 0 12 -8 14 -32 9 -18 -3 -100 -9 -183 -12 -176 -7
-276 6 -431 59 -504 173 -842 553 -951 1068 -24 118 -24 373 0 489 129 608
618 1041 1256 1110 134 15 277 8 418 -19 377 -73 672 -275 865 -593 27 -43 39
-56 43 -45 24 60 -136 292 -300 437 -242 213 -589 354 -938 380 -78 5 -152 9
-163 8 -12 -2 -57 -6 -100 -9z m-689 -301 c-237 -200 -401 -489 -496 -868 -30
-122 -33 -148 -32 -275 0 -111 6 -167 27 -270 26 -127 117 -417 156 -498 19
-38 18 -69 0 -37 -4 8 -17 25 -28 37 -10 13 -51 87 -90 165 -125 250 -177 496
-154 722 42 395 237 753 532 975 129 97 170 121 85 49z m-311 -1984 c3 -8 2
-12 -4 -9 -6 3 -10 10 -10 16 0 14 7 11 14 -7z"/>
<path d="M6915 11953 c72 -38 108 -66 180 -138 291 -292 335 -733 108 -1077
-94 -142 -250 -268 -418 -339 -151 -63 -405 -80 -568 -38 -283 71 -518 273
-616 527 -35 91 -55 211 -49 296 2 34 -1 51 -6 46 -15 -15 -15 -180 -1 -261
77 -436 498 -778 957 -779 383 0 750 249 887 603 49 128 56 171 56 342 0 170
-6 201 -62 345 -83 211 -251 386 -467 485 -106 50 -107 43 -1 -12z m511 -761
c20 -314 -100 -581 -341 -760 -79 -58 -120 -78 -180 -87 -41 -6 -46 -9 -30
-16 16 -7 14 -8 -8 -4 -21 4 -27 2 -21 -6 5 -8 3 -9 -6 -4 -11 7 -10 10 1 19
178 136 249 201 344 321 96 120 168 323 195 550 6 55 14 107 17 115 10 28 23
-29 29 -128z"/>
<path d="M6414 11599 c-10 -12 -18 -23 -16 -25 1 -2 2 -7 2 -11 0 -5 -4 -2 -8
5 -7 10 -14 7 -34 -10 -13 -13 -31 -24 -39 -25 -24 -5 -129 -50 -125 -54 3 -2
-8 -5 -22 -5 -77 -4 -165 -19 -177 -30 -8 -9 -24 -12 -43 -8 -19 4 -32 1 -37
-7 -11 -17 188 -5 265 15 88 24 235 106 235 131 0 19 16 35 27 29 7 -4 8 -2 4
4 -9 16 -10 15 -32 -9z m-24 -43 c0 -2 -7 -7 -16 -10 -8 -3 -12 -2 -9 4 6 10
25 14 25 6z"/>
<path d="M8900 9104 c-14 -2 -59 -9 -100 -15 -41 -6 -135 -26 -209 -45 -476
-121 -896 -391 -1159 -744 -143 -191 -224 -356 -203 -413 6 -16 15 -6 51 59
181 331 431 575 755 737 458 228 1014 261 1510 90 195 -68 469 -219 604 -334
70 -60 233 -225 286 -289 185 -227 338 -547 395 -830 64 -318 49 -669 -40
-968 -136 -457 -422 -846 -810 -1102 -199 -131 -491 -254 -700 -295 -131 -25
-353 -30 -490 -11 -140 20 -140 20 -140 1 0 -23 33 -33 170 -50 165 -20 444
-20 585 0 734 104 1399 652 1668 1375 95 256 137 488 137 762 0 1046 -768
1928 -1796 2063 -104 14 -441 19 -514 9z m1387 -411 c241 -164 431 -367 580
-622 200 -339 316 -810 284 -1154 -21 -219 -67 -414 -148 -622 -37 -96 -161
-347 -188 -380 -16 -20 -16 -19 -10 5 5 19 4 22 -4 10 -6 -8 -8 -22 -6 -30 3
-8 -11 -37 -30 -64 -33 -47 -46 -56 -25 -18 37 67 158 433 204 615 66 260 80
368 80 602 0 204 -1 214 -33 350 -133 556 -382 1012 -698 1277 -128 107 -121
100 -96 89 12 -6 53 -32 90 -58z"/>
<path d="M10766 5863 c-6 -14 -5 -15 5 -6 7 7 10 15 7 18 -3 3 -9 -2 -12 -12z"/>
<path d="M2221 8659 c-66 -26 -230 -200 -326 -344 -272 -409 -347 -977 -194
-1470 38 -125 129 -313 204 -425 457 -678 1327 -917 2090 -575 351 157 666
471 838 835 66 138 96 225 133 385 26 111 28 136 28 325 0 229 -14 321 -79
515 -50 151 -81 216 -99 209 -14 -5 -14 -10 0 -42 87 -202 125 -428 105 -617
-49 -446 -219 -789 -529 -1068 -543 -489 -1328 -544 -1942 -136 -127 84 -325
282 -409 409 -125 188 -220 416 -258 620 -24 132 -24 430 1 554 57 289 180
519 393 733 98 98 107 117 44 92z m2283 -2361 c-15 -27 -37 -47 -46 -42 -4 3
-7 1 -6 -4 2 -5 -9 -21 -25 -35 -200 -188 -431 -331 -652 -405 -183 -61 -229
-67 -480 -67 -257 1 -341 13 -541 80 -204 68 -438 209 -564 340 l-45 47 75
-56 c191 -143 466 -248 766 -292 172 -26 489 -26 604 0 233 51 517 182 805
373 61 40 111 73 113 73 2 0 0 -6 -4 -12z"/>
<path d="M3460 8518 c-247 -35 -539 -212 -689 -418 -42 -57 -115 -187 -122
-215 -1 -5 -9 -25 -16 -44 -31 -74 -69 -258 -44 -211 4 8 14 42 20 75 49 230
259 469 524 596 144 68 216 83 422 83 158 1 190 -2 265 -22 224 -62 413 -190
552 -376 151 -203 218 -451 190 -706 -25 -223 -109 -409 -259 -570 -137 -148
-329 -251 -512 -276 -52 -7 -61 -24 -12 -24 57 0 239 53 326 95 182 88 348
242 460 428 119 197 170 431 146 661 -44 408 -321 750 -715 881 -56 19 -133
39 -172 45 -83 12 -274 11 -364 -2z m345 -18 c253 -36 539 -215 623 -390 15
-30 28 -58 30 -62 9 -18 -16 -5 -48 25 -153 144 -403 284 -577 323 -131 30
-507 28 -630 -3 -13 -3 -23 -1 -23 4 0 9 146 65 220 84 107 27 288 35 405 19z"/>
<path d="M8488 7766 c-138 -71 -235 -142 -344 -250 -278 -279 -413 -666 -376
-1079 44 -488 330 -895 777 -1106 255 -121 558 -152 835 -86 439 106 781 401
960 831 67 160 84 254 85 454 0 147 -3 180 -17 205 -17 29 -17 28 -11 -75 9
-167 -19 -337 -79 -480 -140 -331 -416 -582 -762 -695 -153 -49 -224 -60 -396
-60 -164 0 -215 8 -370 55 -422 129 -749 486 -851 930 -30 127 -36 347 -14
484 59 380 305 728 615 875 33 16 57 31 53 35 -10 10 -13 8 -105 -38z m-638
-1062 c39 -278 98 -500 176 -659 83 -170 311 -419 522 -570 62 -44 108 -81
102 -83 -6 -2 -21 3 -33 10 -12 8 -32 17 -45 21 -19 4 -21 3 -11 -9 45 -54
-210 72 -296 146 -132 115 -208 201 -287 326 -137 215 -197 490 -176 804 7
110 16 175 23 168 3 -2 14 -71 25 -154z"/>
<path d="M5362 7237 c-196 -507 -268 -1016 -206 -1457 51 -363 232 -893 513
-1509 29 -62 51 -115 49 -116 -2 -2 -91 40 -198 94 -273 136 -433 206 -594
263 -182 64 -331 125 -456 188 -56 28 -106 48 -110 43 -5 -4 -10 -23 -12 -41
l-3 -33 155 -70 c279 -126 693 -336 814 -414 142 -90 361 -247 503 -359 l102
-81 115 -236 c122 -252 177 -378 280 -639 36 -91 110 -276 165 -412 137 -336
199 -527 255 -778 107 -483 69 -1007 -98 -1345 l-51 -103 210 -6 c116 -4 314
-5 440 -4 l230 3 12 90 c51 386 63 897 29 1172 l-18 142 152 173 c315 358 348
390 519 503 173 114 605 375 896 540 434 247 680 371 760 381 52 8 59 27 23
61 l-23 21 -80 -32 c-44 -19 -238 -99 -432 -179 -437 -182 -617 -255 -904
-367 -228 -89 -334 -138 -464 -213 -110 -63 -307 -195 -457 -305 l-137 -100
-89 166 c-126 234 -277 495 -597 1032 -829 1389 -950 1612 -1055 1939 -175
548 -221 802 -220 1218 0 307 34 557 102 761 l25 74 -44 19 c-25 10 -48 19
-53 19 -5 0 -26 -46 -48 -103z"/>
<path d="M3155 7261 c-3 -5 0 -13 6 -17 8 -5 9 -3 4 6 -5 8 -3 11 6 8 8 -3 14
-12 14 -21 0 -8 10 -26 21 -39 31 -34 81 -111 109 -167 20 -39 30 -49 45 -46
12 2 18 0 15 -6 -4 -5 -11 -7 -16 -4 -12 8 -11 0 3 -47 8 -27 14 -35 20 -26 6
9 7 6 3 -8 -7 -27 4 -56 18 -47 6 4 8 -3 3 -20 -5 -20 -2 -30 14 -39 11 -7 20
-21 20 -32 0 -11 3 -17 6 -14 3 4 -4 50 -15 104 -24 114 -79 233 -146 317 -40
51 -48 57 -63 45 -13 -11 -14 -11 -8 0 5 9 0 22 -15 38 -24 26 -35 29 -44 15z"/>
<path d="M9229 7210 c17 -15 21 -24 13 -29 -8 -5 -6 -12 8 -24 11 -9 20 -13
20 -9 0 4 5 -1 11 -12 15 -24 141 -82 237 -108 59 -15 117 -21 242 -24 127 -3
157 -1 130 7 -19 6 -49 9 -67 7 -18 -2 -30 -1 -25 3 4 4 21 9 37 11 17 2 -28
11 -100 21 -71 10 -165 27 -208 38 -43 11 -83 17 -89 13 -6 -4 -8 -3 -5 3 7
12 -62 35 -76 26 -6 -3 -7 -2 -4 4 3 5 -10 17 -29 27 -20 9 -33 12 -29 6 3 -6
-3 -10 -16 -10 -16 0 -19 3 -11 13 8 9 1 18 -26 35 -34 21 -35 21 -13 2z"/>
<path d="M9190 7213 c5 -2 8 -9 4 -14 -3 -5 0 -9 6 -9 15 0 7 23 -8 26 -7 1
-8 0 -2 -3z"/>
<path d="M4220 4040 c-9 -6 -10 -10 -3 -10 6 0 15 5 18 10 8 12 4 12 -15 0z"/>
<path d="M4121 3988 c-47 -16 -118 -33 -158 -37 -96 -9 -104 -21 -15 -21 39 0
73 4 77 10 3 5 12 7 19 4 17 -6 114 31 146 56 31 24 32 25 -69 -12z"/>
</g>
</svg>
